# xmcd
#
# Track frame offsets: 
#        150
#        15457
#        31396
#        55240
#        71525
#        87485
#        112959
#        134385
#        156400
#        175857
#        198656
#        216247
#        237066
#        258603
#        281407
#        299505
#        316657
#        337602
#
# Disc length: 4762 seconds
#
# Revision: 0
# Processed by: cddbd v1.5.2PL0 Copyright (c) Steve Scherf et al.
# Submitted via: ExactAudioCopyFreeDBPlugin 1.0
#
DISCID=04129812
DTITLE=李玲玉 - 女人的心声
DYEAR=2008
DGENRE=
TTITLE0=心心相印
TTITLE1=彩虹
TTITLE2=初吻
TTITLE3=无法拒绝
TTITLE4=比春更娇艳
TTITLE5=我心依然
TTITLE6=新花好月圆
TTITLE7=真我真情
TTITLE8=挥挥手
TTITLE9=爱情天书
TTITLE10=春
TTITLE11=七月初七
TTITLE12=回想曲
TTITLE13=今生奇遇
TTITLE14=飘摇
TTITLE15=自由空间
TTITLE16=水莲姑娘
TTITLE17=夜半女人心
EXTD=
EXTT0=
EXTT1=
EXTT2=
EXTT3=
EXTT4=
EXTT5=
EXTT6=
EXTT7=
EXTT8=
EXTT9=
EXTT10=
EXTT11=
EXTT12=
EXTT13=
EXTT14=
EXTT15=
EXTT16=
EXTT17=
PLAYORDER=
